<svg id="Layer_1" data-name="Layer 1" xmlns="http://www.w3.org/2000/svg" viewBox="0 0 1000 1000"><defs><style>.cls-1{fill:#356839;}.cls-2{fill:#dd3c3c;}</style></defs><title>GREAT AKAI</title><path class="cls-1" d="M298.37,444.83,500,92.31,645.84,348.16C616,335.12,573,331,553.77,331,440.08,331,365.58,374,298.37,444.83Z"/><path class="cls-1" d="M257.87,799.14c-27.71-44.95-43.42-96.34-43.42-150.92a280.83,280.83,0,0,1,9.89-74L95.71,799.14,33.62,907.69h333.6C322,879.33,284.41,842.19,257.87,799.14Z"/><path class="cls-2" d="M737.27,907.69H966.38L904.29,799.14l-.21-.38L800.34,617.4,741.27,514.12c-40.46-36.75-97.37-59.62-160.41-59.62-122.77,0-222.3,86.74-222.3,193.72,0,61,32.34,115.4,82.89,150.92H593.51v-100H512.7V581.05H737.27V907.69Z"/></svg>